<svg width="24" height="25" viewBox="0 0 24 25" fill="none" xmlns="http://www.w3.org/2000/svg">
<path d="M4 21.5C3.45 21.5 2.97917 21.3042 2.5875 20.9125C2.19583 20.5208 2 20.05 2 19.5V5.5C2 4.95 2.19583 4.47917 2.5875 4.0875C2.97917 3.69583 3.45 3.5 4 3.5H20C20.55 3.5 21.0208 3.69583 21.4125 4.0875C21.8042 4.47917 22 4.95 22 5.5V19.5C22 20.05 21.8042 20.5208 21.4125 20.9125C21.0208 21.3042 20.55 21.5 20 21.5H4ZM4 19.5H20V5.5H4V19.5ZM5 17.5H10V15.5H5V17.5ZM14.55 15.5L19.5 10.55L18.075 9.125L14.55 12.675L13.125 11.25L11.725 12.675L14.55 15.5ZM5 13.5H10V11.5H5V13.5ZM5 9.5H10V7.5H5V9.5Z" fill="#D21E6A"/>
</svg>
